<svg width="482" height="481" viewBox="0 0 482 481" fill="none" xmlns="http://www.w3.org/2000/svg">
<path d="M400.317 0H82.2537C37.2599 0 0.785156 36.4747 0.785156 81.4686V399.531C0.785156 444.525 37.2599 481 82.2537 481H400.317C445.31 481 481.785 444.525 481.785 399.531V81.4686C481.785 36.4747 445.31 0 400.317 0Z" fill="#4C35E7"/>
<path d="M108.292 334.436C120.693 335.319 174.535 337.746 218.358 298.865C222.992 294.761 275.554 246.613 264.874 182.267C257.989 141.003 226.126 99.2541 205.913 103.182C187.73 106.668 181.111 146.652 180.184 168.057C179.566 182.047 180.184 215.19 222.33 288.715C237.733 315.592 261.079 352.133 295.017 392.162C326.66 347.146 358.347 302.087 389.99 257.072" stroke="#FFF8EE" stroke-width="44.1325" stroke-linecap="round" stroke-linejoin="round"/>
<circle cx="425.417" cy="203.265" r="22.8488" fill="#34AF9C"/>
</svg>
