<svg width="1326" height="364" viewBox="0 0 1326 364" fill="none" xmlns="http://www.w3.org/2000/svg">
<path d="M367.234 286.075C347.706 286.075 330.503 281.743 315.625 273.122C300.747 264.459 289.038 252.567 280.585 237.321C272.131 222.117 267.862 204.535 267.862 184.702C267.862 164.869 272.047 147.287 280.374 132.041C288.7 116.837 300.324 104.904 315.245 96.24C330.123 87.6188 347.072 83.287 366.093 83.287C385.113 83.287 402.824 87.6188 417.702 96.24C432.58 104.904 444.204 116.837 452.573 132.041C460.9 147.287 465.084 164.827 465.084 184.702C465.084 204.578 460.9 222.117 452.573 237.321C444.204 252.567 432.665 264.501 417.913 273.122C403.162 281.786 386.254 286.075 367.276 286.075L367.234 286.075ZM367.234 246.197C378.012 246.197 387.438 243.564 395.553 238.255C403.627 232.989 410.009 225.727 414.616 216.596C419.223 207.423 421.548 196.806 421.548 184.66C421.548 172.514 419.223 161.897 414.616 152.723C410.009 143.55 403.5 136.33 395.173 131.064C386.804 125.798 377.251 123.123 366.473 123.123C355.695 123.123 346.185 125.756 337.985 131.064C329.742 136.373 323.36 143.593 318.711 152.723C314.103 161.897 311.779 172.514 311.779 184.66C311.779 196.806 314.146 207.423 318.922 216.596C323.656 225.77 330.207 232.989 338.576 238.255C346.903 243.564 356.498 246.197 367.276 246.197L367.234 246.197Z" fill="#4C35E7"/>
<path d="M793.53 286.076C770.409 286.076 752.488 280.937 739.807 270.574C727.085 260.255 720.745 245.688 720.745 226.832C720.745 206.701 727.508 191.37 740.991 180.753C754.474 170.178 773.284 164.87 797.418 164.87L849.028 164.87L849.028 198.165L811.282 198.165C794.079 198.165 781.991 200.543 775.059 205.342C768.127 210.099 764.661 216.894 764.661 225.643C764.661 233.117 767.662 238.978 773.706 243.267C779.751 247.514 788.162 249.637 798.94 249.637C808.704 249.637 817.158 247.429 824.343 243.055C831.529 238.68 837.108 232.862 841.081 225.643C845.054 218.423 847.041 210.311 847.041 201.265L859.764 201.265C859.764 227.596 854.48 248.278 843.955 263.397C833.431 278.474 816.608 286.033 793.488 286.033L793.53 286.076ZM848.985 281.446L847.041 245.051L847.041 181.942C847.041 168.777 845.688 157.735 842.983 148.859C840.278 139.941 835.925 133.103 829.88 128.347C823.836 123.59 815.805 121.169 805.788 121.169C796.531 121.169 788.458 123.123 781.526 126.988C774.594 130.852 768.676 136.925 763.816 145.164L726.07 131.235C730.17 122.741 735.623 114.799 742.428 107.452C749.233 100.105 757.856 94.2443 768.254 89.8275C778.652 85.4533 791.163 83.2449 805.83 83.2449C824.554 83.2449 840.236 86.9397 852.832 94.2868C865.427 101.634 874.726 112.166 880.771 125.841C886.815 139.516 889.816 156.036 889.816 175.402L888.675 281.446L848.985 281.446Z" fill="#4C35E7"/>
<path d="M933.354 281.446L933.354 10.4955L976.51 10.4955L976.51 281.446L933.354 281.446Z" fill="#4C35E7"/>
<path d="M1024.27 281.446L1024.27 10.4955L1067.43 10.4955L1067.43 281.446L1024.27 281.446Z" fill="#4C35E7"/>
<path d="M1179.9 281.446L1093.59 87.9164L1140.59 87.9164L1207.63 250.869L1221.49 281.446L1179.9 281.446ZM1145.58 363.496C1139.41 363.496 1132.56 362.349 1124.95 360.013C1117.39 357.678 1110.12 354.705 1103.19 351.095L1119.37 315.888C1124.23 318.224 1128.76 320.093 1132.86 321.494C1136.96 322.896 1140.3 323.618 1142.87 323.618C1149.05 323.618 1154.24 322.004 1158.47 318.776C1162.7 315.549 1166.12 310.835 1168.7 304.634L1191.44 251.209L1256.53 87.8739L1303.53 87.8739L1214.18 301.916C1208.77 314.317 1203.32 325.147 1197.82 334.447C1192.29 343.748 1185.44 350.883 1177.2 355.936C1168.95 360.948 1158.43 363.496 1145.62 363.496L1145.58 363.496Z" fill="#4C35E7"/>
<path d="M75.7932 287.199L77.8943 261.532C80.3523 231.528 84.8718 201.802 91.334 172.832C43.7601 164.635 12.6786 134.113 0.785135 120.384L30.717 94.3192C39.9146 104.944 64.3755 128.979 101.285 134.192C120.394 68.8514 140.176 44.8558 153.656 32.4402C165.747 21.298 207.454 -13.5215 235.721 5.65906C241.509 9.59863 249.002 17.5176 251.777 33.0371C256.375 58.6244 246.345 95.9508 227.95 121.777C200.873 159.82 158.73 170.842 131.811 173.867C126.737 195.236 122.812 228.646 120.076 250.731L247.217 250.731L247.217 287.279L75.7932 287.278L75.7932 287.199ZM212.925 40.3591C206.066 42.5875 192.983 50.2677 180.495 61.7283C167.095 74.0643 154.726 97.463 143.665 131.407C161.267 127.149 181.883 117.996 195.719 98.5374C210.744 77.4468 214.59 50.7452 212.925 40.3193L212.925 40.3591Z" fill="#4C35E7"/>
<path d="M544.068 0.684822L501.8 0.684814L501.8 285.225L544.068 285.225L544.068 0.684822Z" fill="#4C35E7"/>
<path d="M681.567 283.314C657.982 282.72 635.538 276.052 616.728 263.991C596.947 251.335 581.393 233.414 571.291 213.241C571.079 213.326 570.91 213.368 570.699 213.453C555.651 218.847 540.055 224.41 508.058 226.406L505.395 184.023C531.474 182.366 543.056 178.247 556.497 173.405C557.342 173.108 558.145 172.811 558.991 172.514C557.638 160.962 558.018 149.326 560.343 137.944C565.5 112.718 584.859 68.72 624.633 63.7087C646.02 60.9907 673.663 70.4187 685.16 93.6491C691.627 106.687 691.965 121.721 686.175 138.284C674.72 171.07 643.611 187.887 611.995 199.524C618.673 210.82 628.056 220.843 639.426 228.148C655.023 238.128 671.465 240.548 682.582 240.846L681.567 283.314ZM632.03 105.71C631.311 105.71 630.635 105.71 629.958 105.838C617.743 107.367 605.528 128.134 601.766 146.523C600.963 150.43 600.54 154.464 600.498 158.499C621.758 150.345 640.863 139.813 646.316 124.184C648.641 117.559 648.134 114.204 647.33 112.548C645.471 108.81 638.243 105.71 632.03 105.71Z" fill="#4C35E7"/>
<circle cx="1303.7" cy="259.291" r="22.0831" fill="#34AF9C"/>
</svg>
